<svg xmlns="http://www.w3.org/2000/svg" viewBox="0 0 61.22 28.53"><defs><style>.cls-1{font-size:18px;font-family:ShreeDev0714-Bold, "Shree Devanagari 714";font-weight:700;}.cls-2{stroke:#000;stroke-miterlimit:10;}</style></defs><g id="Layer_2" data-name="Layer 2"><g id="Layer_1-2" data-name="Layer 1"><text class="cls-1" transform="translate(0 19.25)">High</text><path class="cls-2" d="M49.76.5a5.4,5.4,0,0,0-5.18,5.26,7,7,0,0,0,1.43,4s-7-1.22-7,5.23a4.8,4.8,0,0,0,4.2,4.82s2.81.51,4.07-1.31c0,0,1.86-2.18.59,1.3a7.46,7.46,0,0,1-2,3.38h4"/><path class="cls-2" d="M49.76.5A5.51,5.51,0,0,1,55,5.69a7.25,7.25,0,0,1-1.35,4s7.07-1.32,7,5.11a4.93,4.93,0,0,1-4.14,5s-2.85.49-4.17-1.14c0,0-1.91-2.16-.51,1.26A8.27,8.27,0,0,0,54,23.19H50"/></g></g></svg>