<svg xmlns="http://www.w3.org/2000/svg" viewBox="0 0 58.96 26.64"><defs><style>.cls-1{font-size:18px;font-family:ShreeDev0714-Bold, "Shree Devanagari 714";font-weight:700;}.cls-2{fill:#a00;stroke:#000;stroke-miterlimit:10;}</style></defs><g id="Layer_2" data-name="Layer 2"><g id="Layer_1-2" data-name="Layer 1"><text class="cls-1" transform="translate(0 17.36)">High</text><path class="cls-2" d="M48.3,4.12A5.83,5.83,0,0,0,45,1a4.59,4.59,0,0,0-2.9-.11c-2.54.8-3.45,3.57-3.57,4.16a7.4,7.4,0,0,0,.13,4.31,3.52,3.52,0,0,0,.47.92,36,36,0,0,0,2.36,3.5L42.66,15l1.15,1.25,1.34,1.55,1.35,1.46L47.93,21l.57.63.29.21"/><path class="cls-2" d="M48.3,4.12A5.79,5.79,0,0,1,51.43.84,4.44,4.44,0,0,1,54.34.65c2.57.6,3.56,3.45,3.74,4.05A7.94,7.94,0,0,1,58.21,9c-.12.4-.23.69-.34,1a25.58,25.58,0,0,1-2.24,3.61L54.57,15l-1,1.36-1.35,1.25L50.9,19.13l-1.37,1.75-.52.68-.31.29"/></g></g></svg>