<svg xmlns="http://www.w3.org/2000/svg" viewBox="0 0 34.67 24.7"><defs><style>.cls-1,.cls-2{stroke:#000;stroke-miterlimit:10;}.cls-2{fill:#a00;}</style></defs><g id="Layer_2" data-name="Layer 2"><g id="Layer_1-2" data-name="Layer 1"><path class="cls-1" d="M22.88,12.24S15.9,2,25,2.54c0,0-3.76-3.43-6.71-1.39.94,6.78-.5,13.22.16,20h5.87s-1.19-12.42,8.08,0C32.41,21.17,32.15,1.94,22.88,12.24Z"/><path class="cls-2" d="M18.3,1.15c-1.71,1.17-3.14,4.16-3.42,10.69,0,0-12.93-8.62-12.59,9.33,0,0,10.79-12.17,9.61,0h6.56C17.8,14.37,19.24,7.93,18.3,1.15Z"/><circle class="cls-2" cx="1.62" cy="23.09" r="1.12"/><circle class="cls-1" cx="33.06" cy="23.09" r="1.12"/><circle class="cls-1" cx="26.81" cy="3.04" r="1.12"/></g></g></svg>