<svg xmlns="http://www.w3.org/2000/svg" viewBox="0 0 59.31 28.29"><defs><style>.cls-1{stroke:#000;stroke-miterlimit:10;}.cls-2{font-size:18px;font-family:ShreeDev0714-Bold, "Shree Devanagari 714";font-weight:700;}</style></defs><g id="Layer_2" data-name="Layer 2"><g id="Layer_1-2" data-name="Layer 1"><path class="cls-1" d="M47.85.5a5.4,5.4,0,0,0-5.18,5.26,7,7,0,0,0,1.43,4s-7-1.22-7,5.23a4.8,4.8,0,0,0,4.2,4.82s2.81.51,4.07-1.31c0,0,1.86-2.18.59,1.3a7.46,7.46,0,0,1-2,3.38h4"/><path class="cls-1" d="M47.85.5a5.51,5.51,0,0,1,5.26,5.19,7.25,7.25,0,0,1-1.35,4s7.07-1.32,7.05,5.11a4.94,4.94,0,0,1-4.15,5s-2.85.49-4.17-1.14c0,0-1.91-2.16-.51,1.26a8.23,8.23,0,0,0,2.09,3.29h-4"/><text class="cls-2" transform="translate(0 19.01)">Low</text></g></g></svg>