<svg xmlns="http://www.w3.org/2000/svg" viewBox="0 0 60.04 26.64"><defs><style>.cls-1{fill:#a00;stroke:#000;stroke-miterlimit:10;}.cls-2{font-size:18px;font-family:ShreeDev0714-Bold, "Shree Devanagari 714";font-weight:700;}</style></defs><g id="Layer_2" data-name="Layer 2"><g id="Layer_1-2" data-name="Layer 1"><path class="cls-1" d="M49.38,4.12A5.83,5.83,0,0,0,46.1,1,4.59,4.59,0,0,0,43.2.87c-2.53.8-3.44,3.57-3.57,4.16a7.5,7.5,0,0,0,.13,4.31,3.86,3.86,0,0,0,.47.92,36,36,0,0,0,2.36,3.5L43.74,15l1.15,1.25,1.34,1.55,1.35,1.46L49,21l.58.63.29.21"/><path class="cls-1" d="M49.38,4.12A5.79,5.79,0,0,1,52.51.84,4.45,4.45,0,0,1,55.42.65C58,1.25,59,4.1,59.16,4.7A7.84,7.84,0,0,1,59.29,9c-.11.4-.23.69-.34,1a25.58,25.58,0,0,1-2.24,3.61L55.65,15l-1,1.36-1.35,1.25L52,19.13l-1.37,1.75-.53.68-.31.29"/><text class="cls-2" transform="translate(0 17.36)">Low</text></g></g></svg>